<svg width="120" height="105" viewBox="0 0 120 105" fill="none" xmlns="http://www.w3.org/2000/svg">
<path d="M60 105L32.1081 77.1295L0 60.6017L5.18919 24.6295L0 0.161865L60 11.9906V105Z" fill="#E4F7BB"/>
<path d="M60.0013 104.838L87.8932 76.9674L120.001 60.6017L114.812 24.6295L120.001 0.161865L60.0013 11.9906V104.838Z" fill="#D2E29A"/>
<path d="M119.839 59.4676L74.7576 14.9074L119.839 0L114.974 25.2778L119.839 59.4676Z" fill="#DAEAAE"/>
<path d="M0.322388 59.4676L45.5656 14.7454L0.322388 0L5.34941 25.2778L0.322388 59.4676Z" fill="#DAEAAE"/>
<path d="M114.811 24.9534C114 25.1154 74.9188 15.2312 74.9188 15.2312L119.513 0.323761L114.811 24.9534Z" fill="#C6D88B"/>
<path d="M5.35211 25.1153C6.16292 25.2773 45.244 15.393 45.244 15.393L0.649414 0.485626L5.35211 25.1153Z" fill="#C6D88B"/>
<path d="M68.9183 96.088L59.9994 90.0926L51.0804 96.088L59.9994 104.838L68.9183 96.088Z" fill="white"/>
</svg>
